PathFileType	4	(X/Y/Z)	C:/Users/opensim2020/Desktop/walking_exp_matlab/subject03_walking12_straight_02.trc	
DataRate	CameraRate	NumFrames	NumMarkers	Units	OrigDataRate	OrigDataStartFrame	OrigNumFrames	
100.00	100.00	4	48	mm	100.00	1194	187	
Frame#	Time	LFHD			RFHD			LBHD			RBHD			C7			T10			CLAV			STRN			RBAK			LSHO			LUPA			LELB			LFRM			LWRA			LWRB			LFIN			RSHO			RUPA			RELB			RFRM			RWRA			RWRB			RFIN			LASI			RASI			LPSI			RPSI			LTHI			LKNE			LTIB			LANK			LHEE			LTOE			RTHI			RKNE			RTIB			RANK			RHEE			RTOE			*39			*40			*41			*42			*43			*44			*45			*46			*47			
		X1	Y1	Z1	X2	Y2	Z2	X3	Y3	Z3	X4	Y4	Z4	X5	Y5	Z5	X6	Y6	Z6	X7	Y7	Z7	X8	Y8	Z8	X9	Y9	Z9	X10	Y10	Z10	X11	Y11	Z11	X12	Y12	Z12	X13	Y13	Z13	X14	Y14	Z14	X15	Y15	Z15	X16	Y16	Z16	X17	Y17	Z17	X18	Y18	Z18	X19	Y19	Z19	X20	Y20	Z20	X21	Y21	Z21	X22	Y22	Z22	X23	Y23	Z23	X24	Y24	Z24	X25	Y25	Z25	X26	Y26	Z26	X27	Y27	Z27	X28	Y28	Z28	X29	Y29	Z29	X30	Y30	Z30	X31	Y31	Z31	X32	Y32	Z32	X33	Y33	Z33	X34	Y34	Z34	X35	Y35	Z35	X36	Y36	Z36	X37	Y37	Z37	X38	Y38	Z38	X39	Y39	Z39	X40	Y40	Z40	X41	Y41	Z41	X42	Y42	Z42	X43	Y43	Z43	X44	Y44	Z44	X45	Y45	Z45	X46	Y46	Z46	X47	Y47	Z47	X48	Y48	Z48	

94	0.930	1489.71460	118.73750	1625.88098	1358.82874	143.34871	1631.38135	1507.00977	245.33434	1581.29175	1377.32336	265.01691	1586.61353	1451.70227	282.74481	1419.85193	1458.41528	308.73801	1106.19739	1431.84351	161.88591	1346.20642	1432.97107	113.29716	1182.55090	1366.83679	345.86075	1241.49744	1592.43066	184.74054	1383.68420	1666.55518	168.07785	1189.55200	1679.27454	146.20726	1068.43347	1679.17078	108.18383	943.31000	1651.39050	86.40017	825.39911	1705.66748	98.18980	832.88806	1701.21436	70.50614	755.50964	1282.34229	236.74025	1369.77991	1213.50439	236.09056	1146.74023	1201.78845	212.07558	1035.89648	1201.29871	181.51814	902.23468	1235.08435	135.96800	812.79224	1196.06470	172.79161	802.05212	1204.30933	138.30034	735.78210	1559.08655	128.21771	947.80865	1322.46521	154.47461	943.88434	1526.13171	294.19626	969.61340	1377.74866	309.49884	969.45209	1597.19153	187.77568	642.84204	1553.27356	198.08862	468.34940	1558.48499	264.10574	279.84338	1517.95081	307.86087	74.38906	1484.83582	353.36328	40.94582	1486.62061	159.49016	35.42173	1284.82214	139.72665	650.57123	1309.87195	65.74997	486.55011	1313.00171	167.76259	324.27866	1362.23511	280.55045	141.89642	1418.08020	331.70453	128.97807	1370.36597	172.23830	53.11179	1448.05469	206.67719	1683.92871																								 
95	0.940	1489.45264	105.12816	1625.10730	1358.61865	129.97758	1630.55115	1506.97705	231.80905	1580.81287	1377.39600	251.56804	1585.95959	1451.71350	269.60571	1419.42273	1458.53235	295.92142	1105.70435	1432.10669	148.81328	1345.49487	1433.92578	100.23792	1181.99622	1367.19336	332.67880	1240.85168	1592.44092	171.92065	1383.44006	1667.18140	152.87062	1190.23230	1679.98694	127.98921	1069.72986	1678.71777	85.68278	946.03168	1649.80664	59.19711	829.44214	1704.01379	71.43237	835.83881	1699.05066	39.68675	760.29425	1282.51392	223.37054	1368.77734	1213.66199	225.68759	1145.65466	1201.65820	203.51073	1034.49451	1201.13379	175.29901	900.23932	1234.52600	131.10718	810.01642	1196.00439	168.42657	799.87189	1203.77490	135.12825	733.04071	1560.00830	117.07559	946.47943	1323.19666	140.67105	943.58618	1525.67883	282.18594	968.81793	1377.26257	296.36145	968.81158	1596.82483	180.17281	642.12006	1553.40857	194.29474	467.53955	1558.41760	262.15558	280.19498	1517.74927	307.71161	75.08269	1484.57263	353.29614	41.94606	1486.75061	159.45453	35.49939	1284.69458	122.97638	651.79407	1310.96985	46.77812	488.75079	1313.62671	140.32002	320.31290	1362.68799	241.18454	130.82730	1418.66711	291.61002	114.55933	1370.31775	127.09603	49.86314	1447.75903	192.92529	1683.31091																								 
96	0.950	1489.25293	91.49393	1624.13330	1358.41003	116.48086	1629.46826	1506.95654	218.22772	1580.14600	1377.42419	238.16812	1585.14392	1451.57813	256.43100	1418.58862	1458.60779	282.95700	1105.00549	1432.45532	135.58871	1344.60474	1434.77808	87.29986	1180.77075	1367.52551	319.43579	1239.90845	1592.44202	159.22038	1382.95972	1667.74231	137.74280	1190.66711	1680.89636	110.12210	1070.90930	1678.33875	63.21949	948.81384	1648.07959	31.84774	833.77936	1702.32813	44.52517	839.07080	1696.60071	9.36669	765.26300	1282.58057	209.88704	1367.44934	1213.84839	214.99124	1144.31714	1201.57544	194.67424	1032.83142	1200.89929	169.01535	898.09338	1234.02600	126.26493	807.00385	1195.66077	164.20905	797.55048	1203.30237	131.95616	730.16028	1561.01672	105.44137	945.16962	1323.86829	126.73482	943.05890	1524.98108	270.25070	967.84558	1376.57935	283.06369	967.77832	1596.54138	172.45557	641.34149	1553.64954	189.73271	466.92178	1558.26135	259.96408	280.58243	1517.69604	307.86493	75.96504	1484.17273	353.46811	43.28066	1486.65527	159.31137	35.37565	1284.42712	106.07427	652.46179	1311.94836	28.68152	490.41370	1314.03735	112.92728	316.01877	1362.99744	200.67668	119.98421	1419.10852	249.64772	100.32333	1370.36597	81.53478	47.11652	1447.91174	179.25270	1682.59436																								 
97	0.960	1489.04797	77.92672	1623.03760	1358.17969	103.04469	1628.12085	1506.94531	204.69193	1579.23633	1377.42798	224.78918	1584.10657	1451.38928	243.23480	1417.56750	1458.30957	270.10736	1103.92505	1432.83228	122.32777	1343.38086	1435.79126	74.15955	1179.55029	1367.81421	306.09879	1238.63953	1592.53284	146.55553	1382.25415	1668.43823	122.70121	1190.92896	1681.82007	92.37786	1071.92944	1678.12988	40.90125	951.66193	1646.37854	4.49315	838.74585	1700.62463	17.68786	842.55396	1693.91504	-20.55248	770.36877	1282.73425	196.17096	1365.93018	1214.01904	204.03644	1142.79224	1201.49561	185.60007	1031.02722	1200.77893	162.40170	895.80298	1233.50977	121.29913	804.04974	1195.59460	159.47360	795.13794	1202.85706	128.63799	727.18835	1562.12402	93.42747	943.93164	1324.45056	112.32363	942.48895	1524.09631	258.38934	966.61914	1375.69519	269.73865	966.49701	1596.30774	164.73404	640.46576	1553.62683	185.03867	466.02539	1557.90125	257.73532	280.93723	1517.28357	307.66684	76.81378	1483.65833	353.41025	44.42160	1486.47742	159.46735	35.16517	1283.77954	88.65089	653.10217	1312.81360	11.46545	491.30698	1314.31250	85.78380	311.65530	1363.37695	159.61092	109.69652	1419.35840	207.23398	86.89651	1370.67151	35.67637	45.01716	1447.36499	165.38510	1681.45630																								 
